<svg xmlns="http://www.w3.org/2000/svg" viewBox="0 0 300 300" width="300" height="300" role="img" aria-label="hadouken"><title>hadouken</title><defs><clipPath id="recorteI"><rect x="0" y="0" width="300" height="300" rx="68"/></clipPath></defs><rect x="0" y="0" width="300" height="300" rx="68" fill="#111A2E"/><g clip-path="url(#recorteI)"><g stroke-linecap="round"><line x1="-10" y1="96" x2="60" y2="96" stroke="#E6F7FF" stroke-width="5"/><line x1="-10" y1="204" x2="60" y2="204" stroke="#E6F7FF" stroke-width="5"/><line x1="10" y1="72" x2="90" y2="72" stroke="#2563EB" stroke-width="4"/><line x1="10" y1="228" x2="90" y2="228" stroke="#2563EB" stroke-width="4"/></g><g transform="translate(-47 30) scale(0.75)" stroke="#070B16" stroke-width="6.5" stroke-linejoin="round"><path d="M 360 72 C 410 72, 452 112, 452 160 C 452 208, 410 248, 360 248 L 300 240 L 318 222 L 240 226 L 268 204 L 150 200 L 214 182 L 90 160 L 214 138 L 150 120 L 268 116 L 240 94 L 318 98 L 300 80 Z" fill="#2563EB"/><path d="M 362 96 C 400 96, 428 126, 428 160 C 428 194, 400 224, 362 224 L 318 212 L 290 214 L 300 198 L 204 160 L 300 122 L 290 106 L 318 108 Z" fill="#38BDF8"/><ellipse cx="380" cy="160" rx="40" ry="44" fill="#F0FAFF"/><path d="M 358 128 C 366 118, 380 114, 392 116" fill="none" stroke="#FFFFFF" stroke-width="6"/></g><path d="M 262 52 Q 262 66 276 66 Q 262 66 262 80 Q 262 66 248 66 Q 262 66 262 52 Z" fill="#FFFFFF"/></g></svg>
